<svg aria-hidden="true" style="width:0;height:0;position:absolute;overflow:hidden" xmlns="http://www.w3.org/2000/svg"><defs><symbol id="header-logo-film-icon" viewBox="0 0 32 32"><path fill="none" stroke-linejoin="round" stroke-linecap="round" stroke-width="2.667" d="M26.427 2.667H5.574a2.907 2.907 0 0 0-2.907 2.907v20.853a2.907 2.907 0 0 0 2.907 2.907h20.853a2.907 2.907 0 0 0 2.907-2.907V5.574a2.907 2.907 0 0 0-2.907-2.907zm-17.094 0v26.667M22.667 2.667v26.667M2.667 16h26.667M2.667 9.333h6.667M2.667 22.667h6.667m13.333 0h6.667M22.667 9.333h6.667"/></symbol><symbol id="header-search-icon" viewBox="0 0 32 32"><path fill="none" stroke-linejoin="round" stroke-linecap="round" stroke-width="2.667" d="M14.667 25.333c5.891 0 10.667-4.776 10.667-10.667S20.558 3.999 14.667 3.999 4 8.775 4 14.666s4.776 10.667 10.667 10.667zM28 28l-5.8-5.8"/></symbol><symbol id="footer-heart-icon" viewBox="0 0 34 32"><path fill="#ff6b08" style="fill:var(--color1,#ff6b08)" d="m17.231 31.705-2.412-2.412C5.859 21.367.001 16.025.001 9.478.001 4.136 4.136.001 9.478.001c2.929 0 5.858 1.378 7.754 3.618 1.895-2.24 4.825-3.618 7.754-3.618 5.342 0 9.477 4.135 9.477 9.477 0 6.548-5.858 11.889-14.818 19.815l-2.412 2.412z"/></symbol><symbol id="footer-modal-team-github" viewBox="0 0 32 32"><path d="M11.386 29.975c.459-.201.774-.651.774-1.175v-3.456c0-.126.01-.257.026-.39a.278.278 0 0 1-.024.006H9.855c-.96 0-1.792-.384-2.176-1.152-.448-.832-.64-2.24-1.792-3.008-.192-.128-.064-.32.32-.32.384.064 1.216.576 1.728 1.28.576.704 1.152 1.28 2.176 1.28 1.592 0 2.445-.08 2.958-.355.598-.889 1.425-1.565 2.29-1.565v-.016c-3.628-.116-5.945-1.322-7.024-3.184-2.346.027-4.388.259-5.553.452a9.805 9.805 0 0 1-.089-.561l-.008-.07c1.15-.189 3.1-.414 5.341-.457a4.595 4.595 0 0 1-.177-.506l-.009-.037a41.363 41.363 0 0 0-5.24.062c-.013-.212-.03-.424-.033-.639a41.97 41.97 0 0 1 5.132-.071 6.128 6.128 0 0 1-.083-.986v-.002c0-1.088.384-2.24 1.088-3.2-.32-1.088-.768-3.392.128-4.224 1.728 0 2.944.832 3.52 1.344 1.087-.449 2.303-.705 3.647-.705s2.56.256 3.584.704c.576-.512 1.792-1.344 3.52-1.344.96.896.448 3.2.128 4.224.704.96 1.088 2.048 1.024 3.2 0 .31-.029.609-.07.902a42.326 42.326 0 0 1 5.251.065c-.001.216-.021.426-.033.639a41.569 41.569 0 0 0-5.35-.057c-.067.251-.138.46-.221.662l.013-.035c2.269.029 4.266.249 5.471.441-.028.212-.06.423-.097.632-1.224-.196-3.309-.425-5.683-.436-1.066 1.842-3.341 3.043-6.897 3.183v.02c1.664 0 3.2 2.496 3.2 4.224V28.8c0 .527.319.979.774 1.175 5.863-1.94 10.106-7.47 10.106-13.975 0-8.116-6.603-14.72-14.72-14.72S1.279 7.884 1.279 16c0 6.505 4.243 12.035 10.106 13.975z"/></symbol><symbol id="footer-modal-team-linkedin" viewBox="0 0 32 32"><path d="M16 1.28C7.884 1.28 1.28 7.883 1.28 16S7.884 30.72 16 30.72 30.72 24.117 30.72 16 24.116 1.28 16 1.28zM11.52 22.4H8.96v-9.6h2.56v9.6zm-1.28-11.52h-.029a1.28 1.28 0 1 1 0-2.56h.03-.001a1.28 1.28 0 0 1 .002 2.56h-.002zM23.68 22.4h-2.56v-4.8c0-1.232-1.008-2.24-2.24-2.24s-2.24 1.008-2.24 2.24v4.8h-2.56v-9.6h2.56v1.162a4.128 4.128 0 0 1 2.878-1.162h.002a4.16 4.16 0 0 1 4.16 4.16v5.44z"/></symbol><symbol id="footer-modal-team-telegram" viewBox="0 0 32 32"><path d="M16 1.28c8.13 0 14.72 6.59 14.72 14.72S24.13 30.72 16 30.72 1.28 24.13 1.28 16 7.87 1.28 16 1.28zM21.078 22c.271-.831 1.539-9.11 1.696-10.741.047-.494-.109-.822-.415-.969-.37-.178-.918-.089-1.553.14-.872.314-12.015 5.046-12.659 5.32-.611.259-1.188.542-1.188.952 0 .288.171.45.642.618.49.175 1.725.549 2.454.75.702.194 1.501.026 1.949-.253.475-.295 5.955-3.962 6.349-4.284s.707.09.385.412c-.321.321-4.083 3.972-4.579 4.478-.602.614-.175 1.25.229 1.505.461.291 3.78 2.516 4.28 2.874s1.007.519 1.471.519c.464 0 .708-.611.94-1.321z"/></symbol><symbol id="icon-close" viewBox="0 0 32 32"><path d="m26.667 7.303-1.97-1.97-7.808 7.808-7.808-7.808-1.97 1.97 7.808 7.808-7.808 7.808 1.97 1.97 7.808-7.808 7.808 7.808 1.97-1.97-7.808-7.808 7.808-7.808z"/></symbol><symbol id="icon-arrow-left" viewBox="0 0 32 32"><path d="m12.586 27.414-10-10a2 2 0 0 1 0-2.828l10-10a2 2 0 1 1 2.828 2.828L8.828 14H28a2 2 0 1 1 0 4H8.828l6.586 6.586c.39.39.586.902.586 1.414s-.195 1.024-.586 1.414a2 2 0 0 1-2.828 0z"/></symbol><symbol id="icon-arrow-right" viewBox="0 0 32 32"><path d="m19.414 27.414 10-10a2 2 0 0 0 0-2.828l-10-10a2 2 0 1 0-2.828 2.828L23.172 14H4a2 2 0 1 0 0 4h19.172l-6.586 6.586c-.39.39-.586.902-.586 1.414s.195 1.024.586 1.414a2 2 0 0 0 2.828 0z"/></symbol><symbol id="icon-login" viewBox="0 0 32 32"><path d="M16 .64C7.517.64.64 7.517.64 16S7.517 31.36 16 31.36 31.36 24.483 31.36 16 24.483.64 16 .64zm0 29.44C8.224 30.08 1.92 23.776 1.92 16S8.224 1.92 16 1.92 30.08 8.224 30.08 16 23.776 30.08 16 30.08z"/><path d="M16 16.262a8.32 8.32 0 0 0-8.32 8.32.64.64 0 0 0 1.28 0 7.04 7.04 0 0 1 14.08 0 .64.64 0 0 0 1.28 0 8.32 8.32 0 0 0-8.32-8.32zM16 15.174a4.481 4.481 0 0 0 4.36-4.478l-.002-.136v.007l.002-.136a4.48 4.48 0 0 0-4.354-4.478H16a4.481 4.481 0 0 0-4.36 4.478l.002.143v-.007a4.48 4.48 0 0 0 4.352 4.608H16zm0-7.942a3.202 3.202 0 0 1 3.078 3.341v-.007a3.201 3.201 0 0 1-3.072 3.328H16a3.202 3.202 0 0 1-3.078-3.335v.006a3.2 3.2 0 0 1 3.072-3.335H16z"/></symbol></defs></svg>