<svg aria-hidden="true" style="position: absolute; width: 0; height: 0; overflow: hidden;" version="1.1" xmlns="http://www.w3.org/2000/svg" xmlns:xlink="http://www.w3.org/1999/xlink">
<defs>
<symbol id="header-logo-film-icon" viewBox="0 0 32 32">
<path fill="none" stroke-linejoin="round" stroke-linecap="round" stroke-miterlimit="4" stroke-width="2.6667" d="M26.427 2.667h-20.853c-1.605 0-2.907 1.301-2.907 2.907v0 20.853c0 1.605 1.301 2.907 2.907 2.907v0h20.853c1.605 0 2.907-1.301 2.907-2.907v0-20.853c0-1.605-1.301-2.907-2.907-2.907v0zM9.333 2.667v26.667M22.667 2.667v26.667M2.667 16h26.667M2.667 9.333h6.667M2.667 22.667h6.667M22.667 22.667h6.667M22.667 9.333h6.667"></path>
</symbol>
<symbol id="header-search-icon" viewBox="0 0 32 32">
<path fill="none" stroke-linejoin="round" stroke-linecap="round" stroke-miterlimit="4" stroke-width="2.6667" d="M14.667 25.333c5.891 0 10.667-4.776 10.667-10.667s-4.776-10.667-10.667-10.667v0c-5.891 0-10.667 4.776-10.667 10.667s4.776 10.667 10.667 10.667v0zM28 28l-5.8-5.8"></path>
</symbol>
<symbol id="footer-heart-icon" viewBox="0 0 34 32">
<path fill="#ff6b08" style="fill: var(--color1, #ff6b08)" d="M17.231 31.705l-2.412-2.412c-8.96-7.926-14.818-13.268-14.818-19.815 0-5.342 4.135-9.477 9.477-9.477 2.929 0 5.858 1.378 7.754 3.618 1.895-2.24 4.825-3.618 7.754-3.618 5.342 0 9.477 4.135 9.477 9.477 0 6.548-5.858 11.889-14.818 19.815l-2.412 2.412z"></path>
</symbol>
<symbol id="footer-modal-team-github" viewBox="0 0 32 32">
<path d="M11.386 29.975c0.459-0.201 0.774-0.651 0.774-1.175v0-3.456c0-0.126 0.010-0.257 0.026-0.39-0.006 0.002-0.015 0.004-0.024 0.006l-0.003 0h-2.304c-0.96 0-1.792-0.384-2.176-1.152-0.448-0.832-0.64-2.24-1.792-3.008-0.192-0.128-0.064-0.32 0.32-0.32 0.384 0.064 1.216 0.576 1.728 1.28 0.576 0.704 1.152 1.28 2.176 1.28 1.592 0 2.445-0.080 2.958-0.355 0.598-0.889 1.425-1.565 2.29-1.565v-0.016c-3.628-0.116-5.945-1.322-7.024-3.184-2.346 0.027-4.388 0.259-5.553 0.452-0.026-0.129-0.060-0.344-0.089-0.561l-0.008-0.070c1.15-0.189 3.1-0.414 5.341-0.457-0.060-0.141-0.124-0.322-0.177-0.506l-0.009-0.037c-2.247-0.114-4.186-0.025-5.24 0.062-0.013-0.212-0.030-0.424-0.033-0.639 1.055-0.086 2.942-0.173 5.132-0.071-0.051-0.296-0.081-0.637-0.083-0.986v-0.002c0-1.088 0.384-2.24 1.088-3.2-0.32-1.088-0.768-3.392 0.128-4.224 1.728 0 2.944 0.832 3.52 1.344 1.087-0.449 2.303-0.705 3.647-0.705s2.56 0.256 3.584 0.704c0.576-0.512 1.792-1.344 3.52-1.344 0.96 0.896 0.448 3.2 0.128 4.224 0.704 0.96 1.088 2.048 1.024 3.2 0 0.31-0.029 0.609-0.070 0.902 2.239-0.11 4.177-0.022 5.251 0.065-0.001 0.216-0.021 0.426-0.033 0.639-1.069-0.088-3.056-0.179-5.35-0.057-0.067 0.251-0.138 0.46-0.221 0.662l0.013-0.035c2.269 0.029 4.266 0.249 5.471 0.441-0.028 0.212-0.060 0.423-0.097 0.632-1.224-0.196-3.309-0.425-5.683-0.436-1.066 1.842-3.341 3.043-6.897 3.183v0.020c1.664 0 3.2 2.496 3.2 4.224v3.456c0 0.527 0.319 0.979 0.774 1.175 5.863-1.94 10.106-7.47 10.106-13.975 0-8.116-6.603-14.72-14.72-14.72s-14.72 6.604-14.72 14.72c0 6.505 4.243 12.035 10.106 13.975z"></path>
</symbol>
<symbol id="footer-modal-team-linkedin" viewBox="0 0 32 32">
<path d="M16 1.28c-8.116 0-14.72 6.603-14.72 14.72s6.604 14.72 14.72 14.72 14.72-6.603 14.72-14.72-6.604-14.72-14.72-14.72zM11.52 22.4h-2.56v-9.6h2.56v9.6zM10.24 10.88c-0.009 0-0.019 0-0.029 0-0.707 0-1.28-0.573-1.28-1.28s0.573-1.28 1.28-1.28c0.010 0 0.020 0 0.030 0l-0.001-0c0.695 0.016 1.252 0.583 1.252 1.28s-0.557 1.263-1.25 1.28l-0.002 0zM23.68 22.4h-2.56v-4.8c0-1.232-1.008-2.24-2.24-2.24s-2.24 1.008-2.24 2.24v4.8h-2.56v-9.6h2.56v1.162c0.744-0.719 1.759-1.162 2.878-1.162 0.001 0 0.001 0 0.002 0h-0c2.297 0 4.16 1.863 4.16 4.16v0 5.44z"></path>
</symbol>
<symbol id="footer-modal-team-telegram" viewBox="0 0 32 32">
<path d="M16 1.28c8.13 0 14.72 6.59 14.72 14.72s-6.59 14.72-14.72 14.72-14.72-6.59-14.72-14.72 6.59-14.72 14.72-14.72zM21.078 22c0.271-0.831 1.539-9.11 1.696-10.741 0.047-0.494-0.109-0.822-0.415-0.969-0.37-0.178-0.918-0.089-1.553 0.14-0.872 0.314-12.015 5.046-12.659 5.32-0.611 0.259-1.188 0.542-1.188 0.952 0 0.288 0.171 0.45 0.642 0.618 0.49 0.175 1.725 0.549 2.454 0.75 0.702 0.194 1.501 0.026 1.949-0.253 0.475-0.295 5.955-3.962 6.349-4.284s0.707 0.090 0.385 0.412c-0.321 0.321-4.083 3.972-4.579 4.478-0.602 0.614-0.175 1.25 0.229 1.505 0.461 0.291 3.78 2.516 4.28 2.874s1.007 0.519 1.471 0.519c0.464 0 0.708-0.611 0.94-1.321z"></path>
</symbol>
<symbol id="icon-close" viewBox="0 0 32 32">
<path d="M26.667 7.303l-1.97-1.97-7.808 7.808-7.808-7.808-1.97 1.97 7.808 7.808-7.808 7.808 1.97 1.97 7.808-7.808 7.808 7.808 1.97-1.97-7.808-7.808 7.808-7.808z"></path>
</symbol>
<symbol id="icon-arrow-left" viewBox="0 0 32 32">
<path d="M12.586 27.414l-10-10c-0.781-0.781-0.781-2.047 0-2.828l10-10c0.781-0.781 2.047-0.781 2.828 0s0.781 2.047 0 2.828l-6.586 6.586h19.172c1.105 0 2 0.895 2 2s-0.895 2-2 2h-19.172l6.586 6.586c0.39 0.39 0.586 0.902 0.586 1.414s-0.195 1.024-0.586 1.414c-0.781 0.781-2.047 0.781-2.828 0z"></path>
</symbol>
<symbol id="icon-arrow-right" viewBox="0 0 32 32">
<path d="M19.414 27.414l10-10c0.781-0.781 0.781-2.047 0-2.828l-10-10c-0.781-0.781-2.047-0.781-2.828 0s-0.781 2.047 0 2.828l6.586 6.586h-19.172c-1.105 0-2 0.895-2 2s0.895 2 2 2h19.172l-6.586 6.586c-0.39 0.39-0.586 0.902-0.586 1.414s0.195 1.024 0.586 1.414c0.781 0.781 2.047 0.781 2.828 0z"></path>
</symbol>
<symbol id="icon-login" viewBox="0 0 32 32">
<path d="M16 0.64c-8.483 0-15.36 6.877-15.36 15.36s6.877 15.36 15.36 15.36c8.483 0 15.36-6.877 15.36-15.36v0c0-8.483-6.877-15.36-15.36-15.36v0zM16 30.080c-7.776 0-14.080-6.304-14.080-14.080s6.304-14.080 14.080-14.080c7.776 0 14.080 6.304 14.080 14.080v0c0 7.776-6.304 14.080-14.080 14.080v0z"></path>
<path d="M16 16.262c-4.595 0-8.32 3.725-8.32 8.32v0c0 0.353 0.287 0.64 0.64 0.64s0.64-0.287 0.64-0.64v0c0-3.888 3.152-7.040 7.040-7.040s7.040 3.152 7.040 7.040v0c0 0.353 0.287 0.64 0.64 0.64s0.64-0.287 0.64-0.64v0c0-4.595-3.725-8.32-8.32-8.32v0z"></path>
<path d="M16 15.174c2.422-0.067 4.36-2.046 4.36-4.478 0-0.046-0.001-0.091-0.002-0.136l0 0.007c0.001-0.041 0.002-0.088 0.002-0.136 0-2.432-1.938-4.412-4.354-4.478l-0.006-0c-2.422 0.067-4.36 2.046-4.36 4.478 0 0.048 0.001 0.095 0.002 0.143l-0-0.007c-0.001 0.039-0.002 0.084-0.002 0.13 0 2.432 1.938 4.412 4.354 4.478l0.006 0zM16 7.232c1.715 0.066 3.081 1.472 3.081 3.198 0 0.048-0.001 0.096-0.003 0.143l0-0.007c0.002 0.039 0.003 0.084 0.003 0.13 0 1.725-1.366 3.132-3.075 3.198l-0.006 0c-1.715-0.066-3.081-1.472-3.081-3.198 0-0.046 0.001-0.091 0.003-0.137l-0 0.006c-0.002-0.041-0.003-0.089-0.003-0.137 0-1.726 1.366-3.132 3.075-3.198l0.006-0z"></path>
</symbol>
</defs>
</svg>
